<svg style="display:none">
	<symbol id="ChevronLeft" xmlns="http://www.w3.org/2000/svg" fill="none" viewBox="0 0 24 24" stroke="currentColor"><path stroke-linecap="round" stroke-linejoin="round" d="M15.75 19.5L8.25 12l7.5-7.5" /></symbol>
	<symbol id="url" viewBox="0 0 18 18" fill="none" xmlns="http://www.w3.org/2000/svg"><path d="M10.2867 7.7133C9.60408 7.031 8.67846 6.64771 7.71334 6.64771C6.74821 6.64771 5.82259 7.031 5.14 7.7133L2.56584 10.2866C1.88324 10.9692 1.49976 11.895 1.49976 12.8604C1.49976 13.8257 1.88324 14.7515 2.56584 15.4341C3.24844 16.1167 4.17424 16.5002 5.13959 16.5002C6.10493 16.5002 7.03074 16.1167 7.71334 15.4341L9 14.1475" stroke="currentColor" stroke-width="1.66667" stroke-linecap="round" stroke-linejoin="round"/><path d="M7.71332 10.2867C8.39591 10.969 9.32152 11.3523 10.2867 11.3523C11.2518 11.3523 12.1774 10.969 12.86 10.2867L15.4342 7.71334C16.1168 7.03074 16.5002 6.10493 16.5002 5.13959C16.5002 4.17424 16.1168 3.24844 15.4342 2.56584C14.7516 1.88324 13.8257 1.49976 12.8604 1.49976C11.8951 1.49976 10.9693 1.88324 10.2867 2.56584L8.99998 3.8525" stroke="currentColor" stroke-width="1.66667" stroke-linecap="round" stroke-linejoin="round"/></symbol>
	<symbol id="github" viewBox="0 0 20 20" fill="none" xmlns="http://www.w3.org/2000/svg"><g clip-path="url(#clip0_10_167)"><path fill-rule="evenodd" clip-rule="evenodd" d="M10 0C4.475 0 0 4.475 0 10C0 14.425 2.8625 18.1625 6.8375 19.4875C7.3375 19.575 7.525 19.275 7.525 19.0125C7.525 18.775 7.5125 17.9875 7.5125 17.15C5 17.6125 4.35 16.5375 4.15 15.975C4.0375 15.6875 3.55 14.8 3.125 14.5625C2.775 14.375 2.275 13.9125 3.1125 13.9C3.9 13.8875 4.4625 14.625 4.65 14.925C5.55 16.4375 6.9875 16.0125 7.5625 15.75C7.65 15.1 7.9125 14.6625 8.2 14.4125C5.975 14.1625 3.65 13.3 3.65 9.475C3.65 8.3875 4.0375 7.4875 4.675 6.7875C4.575 6.5375 4.225 5.5125 4.775 4.1375C4.775 4.1375 5.6125 3.875 7.525 5.1625C8.325 4.9375 9.175 4.825 10.025 4.825C10.875 4.825 11.725 4.9375 12.525 5.1625C14.4375 3.8625 15.275 4.1375 15.275 4.1375C15.825 5.5125 15.475 6.5375 15.375 6.7875C16.0125 7.4875 16.4 8.375 16.4 9.475C16.4 13.3125 14.0625 14.1625 11.8375 14.4125C12.2 14.725 12.5125 15.325 12.5125 16.2625C12.5125 17.6 12.5 18.675 12.5 19.0125C12.5 19.275 12.6875 19.5875 13.1875 19.4875C15.1726 18.8173 16.8976 17.5414 18.1197 15.8395C19.3418 14.1375 19.9994 12.0952 20 10C20 4.475 15.525 0 10 0Z" fill="currentColor"/></g><defs><clipPath id="clip0_10_167"><rect width="20" height="20" fill="currentColor"/></clipPath></defs></symbol>
	<symbol id="linkedin" viewBox="0 0 30 30" fill="none" xmlns="http://www.w3.org/2000/svg"><g clip-path="url(#clip0_8_50)"><path d="M15 0.599976C7.04701 0.599976 0.600006 7.04698 0.600006 15C0.600006 22.953 7.04701 29.4 15 29.4C22.953 29.4 29.4 22.953 29.4 15C29.4 7.04698 22.953 0.599976 15 0.599976ZM11.475 20.9685H8.55901V11.5845H11.475V20.9685ZM9.99901 10.4325C9.07801 10.4325 8.48251 9.77997 8.48251 8.97297C8.48251 8.14948 9.09601 7.51648 10.0365 7.51648C10.977 7.51648 11.553 8.14948 11.571 8.97297C11.571 9.77997 10.977 10.4325 9.99901 10.4325ZM22.125 20.9685H19.209V15.768C19.209 14.5575 18.786 13.7355 17.7315 13.7355C16.926 13.7355 16.4475 14.292 16.236 14.8275C16.158 15.018 16.1385 15.288 16.1385 15.5565V20.967H13.221V14.577C13.221 13.4055 13.1835 12.426 13.1445 11.583H15.678L15.8115 12.8865H15.87C16.254 12.2745 17.1945 11.3715 18.768 11.3715C20.6865 11.3715 22.125 12.657 22.125 15.42V20.9685Z" fill="currentColor"/></g><defs><clipPath id="clip0_8_50"><rect width="30" height="30" fill="transparent"/></clipPath></defs></symbol>
</svg>
