<svg style="display:none">
	<symbol id="ChevronLeft" xmlns="http://www.w3.org/2000/svg" fill="none" viewBox="0 0 24 24" stroke="currentColor"><path stroke-linecap="round" stroke-linejoin="round" d="M15.75 19.5L8.25 12l7.5-7.5" /></symbol>
	<symbol id="url" viewBox="0 0 18 18" fill="none" xmlns="http://www.w3.org/2000/svg"><path d="M10.2867 7.7133C9.60408 7.031 8.67846 6.64771 7.71334 6.64771C6.74821 6.64771 5.82259 7.031 5.14 7.7133L2.56584 10.2866C1.88324 10.9692 1.49976 11.895 1.49976 12.8604C1.49976 13.8257 1.88324 14.7515 2.56584 15.4341C3.24844 16.1167 4.17424 16.5002 5.13959 16.5002C6.10493 16.5002 7.03074 16.1167 7.71334 15.4341L9 14.1475" stroke="currentColor" stroke-width="1.66667" stroke-linecap="round" stroke-linejoin="round"/><path d="M7.71332 10.2867C8.39591 10.969 9.32152 11.3523 10.2867 11.3523C11.2518 11.3523 12.1774 10.969 12.86 10.2867L15.4342 7.71334C16.1168 7.03074 16.5002 6.10493 16.5002 5.13959C16.5002 4.17424 16.1168 3.24844 15.4342 2.56584C14.7516 1.88324 13.8257 1.49976 12.8604 1.49976C11.8951 1.49976 10.9693 1.88324 10.2867 2.56584L8.99998 3.8525" stroke="currentColor" stroke-width="1.66667" stroke-linecap="round" stroke-linejoin="round"/></symbol>
	<symbol id="github" viewBox="0 0 20 20" fill="none" xmlns="http://www.w3.org/2000/svg"><g clip-path="url(#clip0_10_167)"><path fill-rule="evenodd" clip-rule="evenodd" d="M10 0C4.475 0 0 4.475 0 10C0 14.425 2.8625 18.1625 6.8375 19.4875C7.3375 19.575 7.525 19.275 7.525 19.0125C7.525 18.775 7.5125 17.9875 7.5125 17.15C5 17.6125 4.35 16.5375 4.15 15.975C4.0375 15.6875 3.55 14.8 3.125 14.5625C2.775 14.375 2.275 13.9125 3.1125 13.9C3.9 13.8875 4.4625 14.625 4.65 14.925C5.55 16.4375 6.9875 16.0125 7.5625 15.75C7.65 15.1 7.9125 14.6625 8.2 14.4125C5.975 14.1625 3.65 13.3 3.65 9.475C3.65 8.3875 4.0375 7.4875 4.675 6.7875C4.575 6.5375 4.225 5.5125 4.775 4.1375C4.775 4.1375 5.6125 3.875 7.525 5.1625C8.325 4.9375 9.175 4.825 10.025 4.825C10.875 4.825 11.725 4.9375 12.525 5.1625C14.4375 3.8625 15.275 4.1375 15.275 4.1375C15.825 5.5125 15.475 6.5375 15.375 6.7875C16.0125 7.4875 16.4 8.375 16.4 9.475C16.4 13.3125 14.0625 14.1625 11.8375 14.4125C12.2 14.725 12.5125 15.325 12.5125 16.2625C12.5125 17.6 12.5 18.675 12.5 19.0125C12.5 19.275 12.6875 19.5875 13.1875 19.4875C15.1726 18.8173 16.8976 17.5414 18.1197 15.8395C19.3418 14.1375 19.9994 12.0952 20 10C20 4.475 15.525 0 10 0Z" fill="currentColor"/></g><defs><clipPath id="clip0_10_167"><rect width="20" height="20" fill="currentColor"/></clipPath></defs></symbol>
	<symbol id="linkedin" viewBox="0 0 30 30" fill="none" xmlns="http://www.w3.org/2000/svg"><g clip-path="url(#clip0_8_50)"><path d="M15 0.599976C7.04701 0.599976 0.600006 7.04698 0.600006 15C0.600006 22.953 7.04701 29.4 15 29.4C22.953 29.4 29.4 22.953 29.4 15C29.4 7.04698 22.953 0.599976 15 0.599976ZM11.475 20.9685H8.55901V11.5845H11.475V20.9685ZM9.99901 10.4325C9.07801 10.4325 8.48251 9.77997 8.48251 8.97297C8.48251 8.14948 9.09601 7.51648 10.0365 7.51648C10.977 7.51648 11.553 8.14948 11.571 8.97297C11.571 9.77997 10.977 10.4325 9.99901 10.4325ZM22.125 20.9685H19.209V15.768C19.209 14.5575 18.786 13.7355 17.7315 13.7355C16.926 13.7355 16.4475 14.292 16.236 14.8275C16.158 15.018 16.1385 15.288 16.1385 15.5565V20.967H13.221V14.577C13.221 13.4055 13.1835 12.426 13.1445 11.583H15.678L15.8115 12.8865H15.87C16.254 12.2745 17.1945 11.3715 18.768 11.3715C20.6865 11.3715 22.125 12.657 22.125 15.42V20.9685Z" fill="currentColor"/></g><defs><clipPath id="clip0_8_50"><rect width="30" height="30" fill="transparent"/></clipPath></defs></symbol>
	<symbol id="chevron" xmlns="http://www.w3.org/2000/svg" viewBox="0 0 24 24" stroke-width="2" stroke="currentColor" fill="none" stroke-linecap="round" stroke-linejoin="round" class="w-5 h-5"><path stroke="none" d="M0 0h24v24H0z" fill="none"></path><path d="M18 6l-12 12"></path><path d="M6 6l12 12"></path></symbol>
	<symbol id="circleCheck" viewBox="0 0 18 18" fill="none" xmlns="http://www.w3.org/2000/svg">
<path fill-rule="evenodd" clip-rule="evenodd" d="M9 2.33341C5.31811 2.33341 2.33334 5.31818 2.33334 9.00008C2.33334 12.682 5.31811 15.6667 9 15.6667C12.6819 15.6667 15.6667 12.682 15.6667 9.00008C15.6667 5.31818 12.6819 2.33341 9 2.33341ZM0.666672 9.00008C0.666672 4.39771 4.39763 0.666748 9 0.666748C13.6024 0.666748 17.3333 4.39771 17.3333 9.00008C17.3333 13.6025 13.6024 17.3334 9 17.3334C4.39763 17.3334 0.666672 13.6025 0.666672 9.00008ZM12.0893 6.74416C12.4147 7.06959 12.4147 7.59723 12.0893 7.92267L8.75593 11.256C8.43049 11.5814 7.90285 11.5814 7.57741 11.256L5.91075 9.58934C5.58531 9.2639 5.58531 8.73626 5.91075 8.41082C6.23619 8.08539 6.76382 8.08539 7.08926 8.41082L8.16667 9.48824L10.9107 6.74416C11.2362 6.41872 11.7638 6.41872 12.0893 6.74416Z" fill="#9900E6"/>
</symbol>

<symbol id="poweredBy" viewBox="0 0 159 35" fill="none" xmlns="http://www.w3.org/2000/svg">
<path d="M1.44194 23V12.8182H4.88228C5.68105 12.8182 6.33398 12.9624 6.84109 13.2507C7.3515 13.5357 7.72934 13.9219 7.97461 14.4091C8.21987 14.8963 8.34251 15.4399 8.34251 16.0398C8.34251 16.6397 8.21987 17.1849 7.97461 17.6754C7.73266 18.166 7.35813 18.5571 6.85103 18.8487C6.34393 19.1371 5.69431 19.2812 4.90217 19.2812H2.43626V18.1875H4.86239C5.40927 18.1875 5.84843 18.093 6.17987 17.9041C6.5113 17.7152 6.7516 17.46 6.90075 17.1385C7.05321 16.8137 7.12944 16.4474 7.12944 16.0398C7.12944 15.6321 7.05321 15.2675 6.90075 14.946C6.7516 14.6245 6.50965 14.3726 6.17489 14.1903C5.84014 14.0047 5.39601 13.9119 4.84251 13.9119H2.67489V23H1.44194ZM13.1898 23.1591C12.5004 23.1591 11.8955 22.995 11.3752 22.6669C10.8581 22.3388 10.4538 21.8797 10.1621 21.2898C9.87376 20.6998 9.72958 20.0104 9.72958 19.2216C9.72958 18.4261 9.87376 17.7318 10.1621 17.1385C10.4538 16.5452 10.8581 16.0845 11.3752 15.7564C11.8955 15.4283 12.5004 15.2642 13.1898 15.2642C13.8792 15.2642 14.4824 15.4283 14.9995 15.7564C15.5198 16.0845 15.9242 16.5452 16.2125 17.1385C16.5042 17.7318 16.65 18.4261 16.65 19.2216C16.65 20.0104 16.5042 20.6998 16.2125 21.2898C15.9242 21.8797 15.5198 22.3388 14.9995 22.6669C14.4824 22.995 13.8792 23.1591 13.1898 23.1591ZM13.1898 22.1051C13.7135 22.1051 14.1444 21.9709 14.4824 21.7024C14.8205 21.4339 15.0707 21.081 15.2331 20.6435C15.3955 20.206 15.4767 19.732 15.4767 19.2216C15.4767 18.7112 15.3955 18.2356 15.2331 17.7947C15.0707 17.3539 14.8205 16.9976 14.4824 16.7259C14.1444 16.4541 13.7135 16.3182 13.1898 16.3182C12.6661 16.3182 12.2353 16.4541 11.8972 16.7259C11.5591 16.9976 11.3089 17.3539 11.1465 17.7947C10.9841 18.2356 10.9029 18.7112 10.9029 19.2216C10.9029 19.732 10.9841 20.206 11.1465 20.6435C11.3089 21.081 11.5591 21.4339 11.8972 21.7024C12.2353 21.9709 12.6661 22.1051 13.1898 22.1051ZM19.9114 23L17.5847 15.3636H18.8176L20.4682 21.2102H20.5478L22.1784 15.3636H23.4313L25.0421 21.1903H25.1216L26.7722 15.3636H28.0051L25.6784 23H24.525L22.8546 17.1335H22.7353L21.0648 23H19.9114ZM32.4982 23.1591C31.7624 23.1591 31.1277 22.9967 30.5941 22.6719C30.0638 22.3438 29.6545 21.8864 29.3661 21.2997C29.0811 20.7098 28.9386 20.0237 28.9386 19.2415C28.9386 18.4593 29.0811 17.7699 29.3661 17.1733C29.6545 16.5734 30.0555 16.1061 30.5692 15.7713C31.0863 15.4332 31.6895 15.2642 32.3789 15.2642C32.7766 15.2642 33.1694 15.3305 33.5572 15.4631C33.945 15.5956 34.2979 15.8111 34.6161 16.1094C34.9343 16.4044 35.1879 16.7955 35.3768 17.2827C35.5657 17.7699 35.6602 18.3698 35.6602 19.0824V19.5795H29.7738V18.5653H34.467C34.467 18.1345 34.3808 17.75 34.2085 17.4119C34.0394 17.0739 33.7975 16.8071 33.4826 16.6115C33.171 16.416 32.8031 16.3182 32.3789 16.3182C31.9116 16.3182 31.5072 16.4342 31.1658 16.6662C30.8278 16.8949 30.5676 17.1932 30.3853 17.5611C30.203 17.929 30.1119 18.3234 30.1119 18.7443V19.4205C30.1119 19.9972 30.2113 20.486 30.4102 20.8871C30.6123 21.2848 30.8924 21.5881 31.2504 21.7969C31.6083 22.0024 32.0243 22.1051 32.4982 22.1051C32.8065 22.1051 33.0849 22.062 33.3335 21.9759C33.5853 21.8864 33.8024 21.7538 33.9847 21.5781C34.167 21.3991 34.3079 21.1771 34.4073 20.9119L35.5408 21.2301C35.4215 21.6146 35.221 21.9527 34.9393 22.2443C34.6576 22.5327 34.3095 22.758 33.8952 22.9205C33.4809 23.0795 33.0153 23.1591 32.4982 23.1591ZM37.445 23V15.3636H38.5785V16.517H38.658C38.7972 16.1392 39.0491 15.8326 39.4137 15.5973C39.7783 15.362 40.1893 15.2443 40.6467 15.2443C40.7328 15.2443 40.8406 15.246 40.9698 15.2493C41.0991 15.2526 41.1969 15.2576 41.2631 15.2642V16.4574C41.2234 16.4474 41.1322 16.4325 40.9897 16.4126C40.8505 16.3894 40.703 16.3778 40.5472 16.3778C40.176 16.3778 39.8446 16.4557 39.5529 16.6115C39.2646 16.764 39.0359 16.9761 38.8668 17.2479C38.7011 17.5163 38.6183 17.8229 38.6183 18.1676V23H37.445ZM45.6232 23.1591C44.8874 23.1591 44.2527 22.9967 43.7191 22.6719C43.1888 22.3438 42.7795 21.8864 42.4911 21.2997C42.2061 20.7098 42.0636 20.0237 42.0636 19.2415C42.0636 18.4593 42.2061 17.7699 42.4911 17.1733C42.7795 16.5734 43.1805 16.1061 43.6942 15.7713C44.2113 15.4332 44.8145 15.2642 45.5039 15.2642C45.9016 15.2642 46.2944 15.3305 46.6822 15.4631C47.07 15.5956 47.4229 15.8111 47.7411 16.1094C48.0593 16.4044 48.3129 16.7955 48.5018 17.2827C48.6907 17.7699 48.7852 18.3698 48.7852 19.0824V19.5795H42.8988V18.5653H47.592C47.592 18.1345 47.5058 17.75 47.3335 17.4119C47.1644 17.0739 46.9225 16.8071 46.6076 16.6115C46.296 16.416 45.9281 16.3182 45.5039 16.3182C45.0366 16.3182 44.6322 16.4342 44.2908 16.6662C43.9528 16.8949 43.6926 17.1932 43.5103 17.5611C43.328 17.929 43.2369 18.3234 43.2369 18.7443V19.4205C43.2369 19.9972 43.3363 20.486 43.5352 20.8871C43.7373 21.2848 44.0174 21.5881 44.3754 21.7969C44.7333 22.0024 45.1493 22.1051 45.6232 22.1051C45.9315 22.1051 46.2099 22.062 46.4585 21.9759C46.7103 21.8864 46.9274 21.7538 47.1097 21.5781C47.292 21.3991 47.4329 21.1771 47.5323 20.9119L48.6658 21.2301C48.5465 21.6146 48.346 21.9527 48.0643 22.2443C47.7826 22.5327 47.4345 22.758 47.0202 22.9205C46.6059 23.0795 46.1403 23.1591 45.6232 23.1591ZM53.4535 23.1591C52.8171 23.1591 52.2553 22.9983 51.7681 22.6768C51.2809 22.352 50.8997 21.8946 50.6246 21.3047C50.3496 20.7114 50.212 20.0104 50.212 19.2017C50.212 18.3996 50.3496 17.7036 50.6246 17.1136C50.8997 16.5237 51.2826 16.0679 51.7731 15.7464C52.2636 15.425 52.8304 15.2642 53.4734 15.2642C53.9705 15.2642 54.3633 15.3471 54.6516 15.5128C54.9433 15.6752 55.1654 15.8608 55.3178 16.0696C55.4736 16.2751 55.5946 16.4441 55.6808 16.5767H55.7802V12.8182H56.9535V23H55.82V21.8267H55.6808C55.5946 21.9659 55.4719 22.1416 55.3129 22.3537C55.1538 22.5625 54.9267 22.7498 54.6317 22.9155C54.3368 23.0779 53.944 23.1591 53.4535 23.1591ZM53.6126 22.1051C54.0832 22.1051 54.4809 21.9825 54.8058 21.7372C55.1306 21.4886 55.3775 21.1456 55.5465 20.7081C55.7156 20.2673 55.8001 19.7585 55.8001 19.1818C55.8001 18.6117 55.7172 18.1129 55.5515 17.6854C55.3858 17.2545 55.1405 16.9197 54.8157 16.6811C54.4909 16.4392 54.0898 16.3182 53.6126 16.3182C53.1154 16.3182 52.7011 16.4458 52.3697 16.701C52.0415 16.9529 51.7946 17.2959 51.6289 17.7301C51.4665 18.161 51.3853 18.6449 51.3853 19.1818C51.3853 19.7254 51.4682 20.2192 51.6339 20.6634C51.8029 21.1042 52.0515 21.4555 52.3796 21.7173C52.7111 21.9759 53.122 22.1051 53.6126 22.1051ZM63.3619 23V12.8182H64.5352V16.5767H64.6346C64.7208 16.4441 64.8401 16.2751 64.9925 16.0696C65.1483 15.8608 65.3704 15.6752 65.6587 15.5128C65.9504 15.3471 66.3448 15.2642 66.842 15.2642C67.485 15.2642 68.0517 15.425 68.5423 15.7464C69.0328 16.0679 69.4156 16.5237 69.6907 17.1136C69.9658 17.7036 70.1033 18.3996 70.1033 19.2017C70.1033 20.0104 69.9658 20.7114 69.6907 21.3047C69.4156 21.8946 69.0344 22.352 68.5472 22.6768C68.06 22.9983 67.4982 23.1591 66.8619 23.1591C66.3713 23.1591 65.9786 23.0779 65.6836 22.9155C65.3886 22.7498 65.1616 22.5625 65.0025 22.3537C64.8434 22.1416 64.7208 21.9659 64.6346 21.8267H64.4954V23H63.3619ZM64.5153 19.1818C64.5153 19.7585 64.5998 20.2673 64.7688 20.7081C64.9379 21.1456 65.1848 21.4886 65.5096 21.7372C65.8344 21.9825 66.2321 22.1051 66.7028 22.1051C67.1933 22.1051 67.6026 21.9759 67.9308 21.7173C68.2622 21.4555 68.5108 21.1042 68.6765 20.6634C68.8455 20.2192 68.93 19.7254 68.93 19.1818C68.93 18.6449 68.8472 18.161 68.6815 17.7301C68.5191 17.2959 68.2721 16.9529 67.9407 16.701C67.6126 16.4458 67.1999 16.3182 66.7028 16.3182C66.2255 16.3182 65.8245 16.4392 65.4996 16.6811C65.1748 16.9197 64.9296 17.2545 64.7638 17.6854C64.5981 18.1129 64.5153 18.6117 64.5153 19.1818ZM72.3803 25.8636C72.1815 25.8636 72.0041 25.8471 71.8484 25.8139C71.6926 25.7841 71.5849 25.7543 71.5252 25.7244L71.8235 24.6903C72.1085 24.7633 72.3604 24.7898 72.5792 24.7699C72.7979 24.75 72.9918 24.6522 73.1609 24.4766C73.3332 24.3042 73.4906 24.0241 73.6332 23.6364L73.8519 23.0398L71.0281 15.3636H72.3008L74.4087 21.4489H74.4883L76.5962 15.3636H77.869L74.6275 24.1136C74.4817 24.508 74.301 24.8345 74.0856 25.093C73.8701 25.3549 73.6199 25.5488 73.3349 25.6747C73.0531 25.8007 72.735 25.8636 72.3803 25.8636Z" fill="#0D1717"/>
<path d="M158.428 16.537L155.465 20.1667C156.057 21.2778 156.724 22.3148 157.39 23.2778C157.835 23.8704 157.983 24.6852 157.761 25.4259V25.5C157.465 26.537 156.576 27.3519 155.465 27.4259C154.798 27.5 154.131 27.5 153.465 27.5C152.798 27.5 152.131 27.5 151.465 27.4259C150.798 27.3519 150.279 27.0556 149.835 26.6111C149.39 27.0556 148.872 27.3519 148.205 27.4259C147.613 27.5 146.872 27.5 146.205 27.5C145.465 27.5 144.798 27.5 144.205 27.4259C143.835 27.3519 143.539 27.2778 143.242 27.1296C142.428 27.3519 141.539 27.4259 140.65 27.4259C138.724 27.4259 137.39 26.9074 136.353 26.2407C135.465 26.9815 134.353 27.4259 133.094 27.4259C131.539 27.4259 130.576 26.7593 129.983 26.2407C128.65 26.9815 127.02 27.4259 125.39 27.4259C123.761 27.4259 122.279 26.9815 121.168 26.2407C120.946 26.3889 120.724 26.537 120.502 26.6111C119.39 27.1296 117.909 27.4259 116.502 27.4259C114.205 27.4259 112.724 26.6852 111.761 25.8704C111.613 26.0185 111.39 26.1667 111.168 26.3148C109.168 27.3519 107.02 27.4259 106.131 27.4259C102.872 27.4259 101.242 26.0185 100.353 24.8333C100.279 24.7593 100.205 24.6852 100.205 24.537C98.7238 26.3148 96.7979 27.4259 93.9831 27.4259C91.4645 27.4259 89.4645 26.463 88.2794 24.8333C87.0201 22.9815 86.8719 20.463 87.8349 17.7963C89.1682 14.3148 92.3534 12.0926 96.2053 12.0926C96.2053 12.0926 96.2794 12.0926 96.3534 12.0926C96.3534 12.0185 96.3534 11.8704 96.3534 11.7963C96.2794 10.6111 97.0942 9.5 98.2794 9.05556L101.761 7.72222C102.131 7.57407 102.502 7.5 102.872 7.5C103.983 7.5 105.02 8.09259 105.539 9.12963L107.02 12.1667C107.465 12.0926 107.909 12.0926 108.353 12.0926C110.428 12.0926 112.205 12.8333 113.316 14.1667C115.02 12.8333 117.168 12.0926 119.539 12.0926C120.798 12.0926 121.909 12.3148 122.872 12.7593C123.02 12.8333 123.242 12.9815 123.39 13.1296C124.724 12.463 126.205 12.0926 127.761 12.0926C130.205 12.0926 132.279 13.0556 133.465 14.7593C134.057 15.6481 134.428 16.6111 134.576 17.7222C136.057 14.3148 139.539 12.0926 143.539 12.0926C144.428 12.0926 145.39 12.2407 146.131 12.463C146.279 12.3889 146.428 12.3889 146.65 12.3889C147.242 12.2407 147.835 12.2407 148.428 12.2407C149.02 12.2407 149.687 12.2407 150.279 12.3148C150.798 12.3889 151.242 12.537 151.613 12.8333C151.983 12.537 152.428 12.3148 152.946 12.3148C153.539 12.2407 154.205 12.2407 154.872 12.2407C155.539 12.2407 156.131 12.2407 156.724 12.3889C157.687 12.537 158.428 13.1296 158.798 14.0185C159.168 14.8333 159.02 15.7963 158.428 16.537Z" fill="#113032"/>
<path d="M152.353 19.7963C153.242 21.6482 154.279 23.2778 155.242 24.6852V24.7593C154.057 24.8333 152.872 24.8333 151.761 24.7593C151.242 24.0185 150.724 22.9074 150.279 21.7963L147.983 24.7593C146.872 24.8333 145.538 24.8333 144.501 24.7593L148.798 19.5741C148.057 18.2408 147.316 16.8333 146.872 14.8333C147.909 14.7593 148.946 14.7593 149.983 14.8333C150.279 15.7963 150.575 16.8333 150.946 17.7963L153.242 14.8333C154.279 14.6852 155.464 14.6852 156.427 14.8333L152.353 19.7963ZM104.205 13.5741C104.501 13.6482 104.724 13.5 104.576 13.2037L103.168 10.3148C103.094 10.0926 102.798 10.0926 102.65 10.1667L99.094 11.5C98.7977 11.5741 98.7977 11.8704 99.094 11.9445L100.205 12.2408C99.3162 14.1667 98.2792 17.1296 97.3903 18.9815C96.4274 21.0556 95.9088 22.463 94.2792 22.463C92.6496 22.463 92.3533 21.2037 93.094 19.3519C93.9088 17.2037 95.2422 16.6111 96.7977 17.0556C97.2422 16.463 97.5385 15.5741 97.6866 14.7593C97.2422 14.6111 96.7237 14.6111 96.2792 14.6111C93.7607 14.6111 91.3162 15.8704 90.3533 18.6111C88.9459 22.0926 90.1311 24.8333 93.9829 24.8333C96.7977 24.8333 98.3533 23.5741 100.205 19.6482C101.242 17.5 102.057 15.3519 103.094 13.2778L104.205 13.5741ZM111.613 18.3889C110.946 20.1667 108.798 20.9074 104.724 20.8333C104.724 22.0185 105.538 22.537 107.02 22.537C108.057 22.537 109.168 22.3148 109.909 21.8704C110.131 22.6111 110.131 23.2778 109.983 23.9445C108.724 24.6111 107.242 24.7593 106.131 24.7593C101.909 24.7593 101.316 21.5741 102.205 19.1296C103.02 16.7593 105.242 14.6111 108.279 14.6111C111.168 14.6852 112.353 16.537 111.613 18.3889ZM107.835 16.7593C106.65 16.7593 105.761 17.5 105.242 18.7593C107.761 18.7593 108.65 18.3889 108.872 17.7963C109.02 17.3519 108.872 16.7593 107.835 16.7593ZM119.39 17.0556C119.909 17.0556 120.427 17.1296 120.724 17.3519C121.242 16.6111 121.613 15.8704 121.613 15.1296C121.168 14.9074 120.353 14.7593 119.39 14.7593C116.131 14.7593 113.538 16.6852 112.576 19.3519C111.687 21.8704 112.353 24.9815 116.501 24.9815C117.613 24.9815 118.724 24.7593 119.464 24.3889C119.687 23.6482 119.761 22.9074 119.538 22.1667C119.02 22.3889 118.279 22.6111 117.464 22.6111C115.39 22.6111 115.168 21.0556 115.613 19.7222C116.131 18.1667 117.39 17.0556 119.39 17.0556ZM133.835 21.4259C132.576 21.4259 131.909 22.2408 131.613 22.9815C131.316 23.8704 131.687 24.9074 133.094 24.9074C134.279 24.9074 135.02 24.1667 135.316 23.4259C135.613 22.463 135.316 21.4259 133.835 21.4259ZM131.687 20.537C130.65 23.2778 128.205 24.8333 125.39 24.8333C121.613 24.8333 120.501 21.8704 121.464 19.0556C122.353 16.537 124.65 14.6852 127.687 14.6852C131.538 14.6852 132.724 17.5741 131.687 20.537ZM127.316 16.9815C125.909 16.9815 124.946 18.2408 124.576 19.5C124.057 21.0556 124.353 22.6111 125.909 22.6111C127.242 22.6111 128.205 21.4259 128.65 20.1667C129.094 18.6111 128.946 16.9815 127.316 16.9815ZM141.613 22.463C139.538 22.463 139.316 20.9074 139.761 19.5741C140.279 18.1667 141.538 17.0556 143.538 17.0556C144.057 17.0556 144.576 17.1296 144.872 17.3519C145.39 16.6111 145.761 15.8704 145.761 15.1296C145.316 14.9074 144.501 14.7593 143.538 14.7593C140.279 14.7593 137.687 16.6852 136.724 19.3519C135.835 21.8704 136.501 24.9815 140.65 24.9815C141.761 24.9815 142.872 24.7593 143.613 24.3889C143.835 23.6482 143.909 22.9074 143.687 22.1667C143.168 22.2408 142.427 22.463 141.613 22.463Z" fill="#02F67C"/>
</symbol>

</svg>
